HIERARCHY
ROOT Hips
{
	OFFSET 0.00000 0.00000 0.00000
	CHANNELS 6 Xposition Yposition Zposition Zrotation Yrotation Xrotation 
	JOINT LHipJoint
	{
		OFFSET 0 0 0
		CHANNELS 3 Zrotation Yrotation Xrotation
		JOINT LeftHip
		{
			OFFSET 1.75344 -1.53157 0.77399
			CHANNELS 3 Zrotation Yrotation Xrotation
			JOINT LeftKnee
			{
				OFFSET 2.25415 -6.19323 0.00000
				CHANNELS 3 Zrotation Yrotation Xrotation
				JOINT LeftAnkle
				{
					OFFSET 2.30342 -6.32861 0.00000
					CHANNELS 3 Zrotation Yrotation Xrotation
					JOINT LeftToe
					{
						OFFSET 0.10958 -0.30108 1.49206
						CHANNELS 3 Zrotation Yrotation Xrotation
						End Site
						{
							OFFSET 0.00000 -0.00000 0.77783
						}
					}
				}
			}
		}
	}
	JOINT RHipJoint
	{
		OFFSET 0 0 0
		CHANNELS 3 Zrotation Yrotation Xrotation
		JOINT RightHip
		{
			OFFSET -1.81912 -1.53156 0.77399
			CHANNELS 3 Zrotation Yrotation Xrotation
			JOINT RightKnee
			{
				OFFSET -2.22882 -6.12365 0.00000
				CHANNELS 3 Zrotation Yrotation Xrotation
				JOINT RightAnkle
				{
					OFFSET -2.21943 -6.09785 0.00000
					CHANNELS 3 Zrotation Yrotation Xrotation
					JOINT RightToe
					{
						OFFSET -0.18931 -0.52012 1.59379
						CHANNELS 3 Zrotation Yrotation Xrotation
						End Site
						{
							OFFSET -0.00000 -0.00000 0.84686
						}
					}
				}
			}
		}
	}
	JOINT lowerback
	{
		OFFSET 0 0 0
		CHANNELS 3 Zrotation Yrotation Xrotation
		JOINT Chest
		{
			OFFSET -0.00200 1.66634 -0.14248
			CHANNELS 3 Zrotation Yrotation Xrotation
			JOINT Chest2
			{
				OFFSET -0.00875 1.64542 0.09514
				CHANNELS 3 Zrotation Yrotation Xrotation
				JOINT lowerneck
				{
					OFFSET 0 0 0
					CHANNELS 3 Zrotation Yrotation Xrotation
					JOINT Neck
					{
						OFFSET 0.02257 1.59605 0.00839
						CHANNELS 3 Zrotation Yrotation Xrotation
						JOINT Head
						{
							OFFSET -0.10214 1.57530 -0.23335
							CHANNELS 3 Zrotation Yrotation Xrotation
							End Site
							{
								OFFSET -0.03588 1.60717 -0.08062
							}
						}
					}
				}
				JOINT LeftCollar
				{
					OFFSET 0 0 0
					CHANNELS 3 Zrotation Yrotation Xrotation
					JOINT LeftShoulder
					{
						OFFSET 2.54983 1.10186 0.40078
CHANNELS 3 Zrotation Xrotation Yrotation
						JOINT LeftElbow
						{
OFFSET 0 -4.288400 0.000000
CHANNELS 3 Zrotation Xrotation Yrotation
							JOINT LeftWrist
							{
OFFSET 0 -3.065520 -0.000000
CHANNELS 3 Zrotation Xrotation Yrotation
								JOINT lhand
								{
									OFFSET 0 0 0
CHANNELS 3 Zrotation Xrotation Yrotation
									JOINT LFingers
									{
OFFSET 0 -0.753040 0.000000
CHANNELS 3 Zrotation Xrotation Yrotation
										End Site
										{
OFFSET 0 -0.607120 0.000000
										}
									}
								}
								JOINT LThumb
								{
OFFSET 0 0.000000 0.000000
CHANNELS 3 Zrotation Xrotation Yrotation
									End Site
									{
OFFSET 0 -0.616390 0.616390
									}
								}
							}
						}
					}
				}
				JOINT RightCollar
				{
					OFFSET 0 0 0
					CHANNELS 3 Zrotation Yrotation Xrotation
					JOINT RightShoulder
					{
						OFFSET -2.60909 1.35448 0.21802
CHANNELS 3 Zrotation Xrotation Yrotation
						JOINT RightElbow
						{
OFFSET 0 -4.521720 -0.000000
CHANNELS 3 Zrotation Xrotation Yrotation
							JOINT RightWrist
							{
OFFSET 0 -2.891400 0.000000
CHANNELS 3 Zrotation Xrotation Yrotation
								JOINT rhand
								{
									OFFSET 0 0 0
CHANNELS 3 Zrotation Xrotation Yrotation
									JOINT RFingers
									{
OFFSET 0 -0.680540 0.000000
CHANNELS 3 Zrotation Xrotation Yrotation
										End Site
										{
OFFSET 0 -0.548670 0.000000
										}
									}
								}
								JOINT RThumb
								{
OFFSET 0 0.000000 0.000000
CHANNELS 3 Zrotation Xrotation Yrotation
									End Site
									{
OFFSET 0 -0.557050 0.557050
									}
								}
							}
						}
					}
				}
			}
		}
	}
}
MOTION
Frames: 6
Frame Time: 0.008333333333333333
7.168471 15.375436 -38.096273 -179.927316 -194.056354 188.553145 0.000000 0.000000 0.000000 -22.091251 -29.411911 -7.733681 2.935437 10.589729 30.908377 1.900674 5.226549 -28.344992 2.242119 -9.346580 -26.890643 0.000000 0.000000 0.000000 30.482585 22.343184 -1.786199 -1.901525 -8.657791 24.730554 -3.318868 -31.069486 -54.609044 -3.062887 -10.794654 31.592014 0.404230 1.821993 5.465554 -0.596202 2.458711 -5.724644 -1.183500 1.156352 -9.070581 -8.898431 -6.604667 -3.142399 6.311261 -8.909381 9.768450 2.921995 -4.441225 4.114187 0.000000 0.000000 0.000000 12.147461 25.141310 -33.971497 18.321949 -28.566765 4.702479 -0.658507 18.356501 32.559288 0.000000 0.000000 0.000000 -7.125000 0.000000 0.000000 -18.142533 -1.195225 -19.515761 0.000000 0.000000 0.000000 -11.188938 23.328704 49.041506 -17.045194 -26.916925 -4.107932 1.811741 22.958177 56.833243 0.000000 0.000000 0.000000 7.125000 0.000000 0.000000 -18.593658 -7.753914 -163.147871
7.200433 15.353777 -38.143868 -179.982182 -194.462254 188.364846 0.000000 0.000000 0.000000 -21.985792 -28.828591 -8.053557 2.916660 10.558853 30.806133 1.965364 4.315633 -28.310652 2.530028 -9.890725 -28.624949 0.000000 0.000000 0.000000 30.600853 22.606712 -1.576683 -1.896325 -8.646712 24.696268 -3.776610 -31.081764 -55.929370 -3.391047 -11.301626 33.305240 0.269876 1.797524 5.651738 -0.512209 2.417718 -5.503662 -1.015512 1.148910 -8.949148 -8.945027 -6.710006 -3.312112 6.342716 -9.036589 9.746402 2.924769 -4.500649 4.149205 0.000000 0.000000 0.000000 11.756845 27.626529 -34.443138 19.270212 -29.753011 5.164277 1.120135 13.432977 32.124182 0.000000 0.000000 0.000000 -7.125000 0.000000 0.000000 -17.175864 -0.917574 -18.285528 0.000000 0.000000 0.000000 -10.653568 21.922896 46.732476 -17.582504 -27.619290 -4.353980 -0.811818 24.255379 56.539823 0.000000 0.000000 0.000000 7.125000 0.000000 0.000000 -17.655343 -7.577027 -164.028742
7.239725 15.343038 -38.184411 -179.791589 -194.393386 188.136553 0.000000 0.000000 0.000000 -22.602919 -28.690712 -7.591950 2.845884 10.441253 30.417744 1.867369 6.187609 -28.647951 3.414358 -11.337242 -33.426212 0.000000 0.000000 0.000000 30.353192 22.423739 -1.659133 -1.945827 -8.752302 25.023640 -3.859844 -31.064641 -56.147940 -3.675782 -11.714950 34.732369 0.129055 1.845241 6.253731 -0.657576 2.455346 -5.504114 -1.119589 1.166423 -9.305088 -8.607792 -6.677930 -3.284187 5.969035 -8.987637 9.972257 2.759519 -4.481917 4.177414 0.000000 0.000000 0.000000 11.435324 29.765671 -34.381629 19.448475 -29.972093 5.253101 0.198533 12.962576 32.281159 0.000000 0.000000 0.000000 -7.125000 0.000000 0.000000 -17.678687 -0.994174 -18.899964 0.000000 0.000000 0.000000 -9.591008 20.618362 44.185174 -17.492039 -27.501823 -4.312100 -3.275734 26.632972 56.482423 0.000000 0.000000 0.000000 7.125000 0.000000 0.000000 -16.753613 -7.176672 -164.788439
7.297129 15.330303 -38.218330 -179.258917 -194.043013 188.196434 0.000000 0.000000 0.000000 -23.644602 -29.067384 -6.842809 2.734858 10.252983 29.799935 2.045550 5.798930 -29.591218 2.881840 -10.501227 -30.615704 0.000000 0.000000 0.000000 29.262898 21.617241 -2.609817 -2.061049 -8.992106 25.770485 -3.634086 -30.545930 -55.074670 -3.789490 -11.874824 35.290594 -0.290659 1.748469 6.270906 -0.661338 2.279177 -5.317333 -0.859442 1.108853 -9.130086 -9.090621 -6.402547 -3.805110 6.057698 -8.553918 10.167373 2.871291 -4.272994 4.316305 0.000000 0.000000 0.000000 9.600088 30.630382 -31.779954 18.456196 -28.737401 4.766623 1.384671 14.161629 33.246795 0.000000 0.000000 0.000000 -7.125000 0.000000 0.000000 -17.049478 -2.012199 -18.463380 0.000000 0.000000 0.000000 -9.289850 18.887442 43.073997 -17.267964 -27.209630 -4.209101 -2.734730 26.467646 56.940074 0.000000 0.000000 0.000000 7.125000 0.000000 0.000000 -16.948029 -6.847122 -164.480946
7.352126 15.339208 -38.235652 -179.377653 -193.411027 188.272583 0.000000 0.000000 0.000000 -23.638695 -28.417778 -6.936908 2.688907 10.173544 29.540555 2.211734 5.290707 -30.369008 2.891107 -10.515635 -30.664247 0.000000 0.000000 0.000000 28.870732 21.096472 -3.350988 -2.107970 -9.087509 26.069464 -2.797801 -31.197964 -53.187525 -3.242185 -11.076735 32.539536 -0.056900 1.997518 5.954005 -0.830016 2.626879 -5.380285 -1.205573 1.258975 -8.989487 -8.623184 -6.425540 -3.692310 5.723302 -8.603726 10.470853 2.692452 -4.298509 4.359051 0.000000 0.000000 0.000000 8.416401 30.963971 -28.916603 17.311723 -27.266755 4.229202 1.914027 15.686118 32.688063 0.000000 0.000000 0.000000 -7.125000 0.000000 0.000000 -16.752161 -1.524298 -17.969967 0.000000 0.000000 0.000000 -8.068123 18.158662 41.581399 -17.134008 -27.034062 -4.148090 -4.336294 28.021559 56.509438 0.000000 0.000000 0.000000 7.125000 0.000000 0.000000 -16.364258 -6.948369 -165.098788
7.406810 15.331514 -38.248682 -179.755538 -193.289035 188.103336 0.000000 0.000000 0.000000 -23.506665 -28.349234 -6.880842 2.724243 10.234721 29.740207 2.474686 5.309051 -31.959365 3.333878 -11.216275 -33.013545 0.000000 0.000000 0.000000 29.123243 21.386577 -3.126414 -2.090521 -9.052152 25.958499 -2.900612 -31.177178 -53.476613 -3.608958 -11.620839 34.403816 0.481314 1.914560 6.263224 -0.776800 2.575600 -5.531430 -1.460959 1.196724 -9.317446 -8.716243 -6.240408 -3.837808 5.904329 -8.370314 10.874162 2.769588 -4.176798 4.500398 0.000000 0.000000 0.000000 6.411793 31.246775 -24.872660 16.969055 -26.817015 4.073371 1.798183 16.844932 33.373818 0.000000 0.000000 0.000000 -7.125000 0.000000 0.000000 -16.829180 -2.169713 -18.248124 0.000000 0.000000 0.000000 -7.661144 17.890221 42.172866 -17.425386 -27.414999 -4.281417 -5.771833 28.301653 56.020942 0.000000 0.000000 0.000000 7.125000 0.000000 0.000000 -15.825877 -7.123801 -165.687659
